<svg width="480" height="320" version="1.1" viewBox="0 0 480 320"
     xml:space="preserve" xmlns="http://www.w3.org/2000/svg">
    <defs><linearGradient id="a" x1="240" x2="135.4" y1="250" y2="-70.55" gradientUnits="userSpaceOnUse">
        <stop stop-color="#000000" offset="0"/>
        <stop stop-color="#FF0000" offset="1"/>
    </linearGradient></defs>
    <rect id="b" width="480" height="320" ry="24" fill="url(#a)"/>

    <path d="m275.2 237.7c-1.76 0-2.959 1.28-2.959 3 0 1.68 1.199 2.959 2.959 2.959 1.8 0 2.961-1.279 2.961-2.959 0-1.72-1.161-3-2.961-3zm-68.48 1.559-4.92 0.5215v25.32c0 3 1.8 4.92 4.68 4.92 1.2 0 2.321-0.3598 3.041-0.7598l-0.9609-3.359c-0.2 0.04-0.5189 0.1602-0.8789 0.1602-0.64 0-0.9609-0.4802-0.9609-1.16zm10.76 0-4.92 0.5215v25.32c0 3 1.802 4.92 4.682 4.92 1.2 0 2.319-0.3598 3.039-0.7598l-0.9609-3.359c-0.2 0.04-0.5189 0.1602-0.8789 0.1602-0.64 0-0.9609-0.4802-0.9609-1.16zm-45.6 1.961c-5.76 0-10.2 4.52-10.2 14.32 0 9.92 4.239 14.48 10.2 14.48 3.2 0 5.601-1.598 7.121-3.318l-2.441-2.801c-1.24 1.04-2.438 2.039-4.318 2.039-3.12 0-5.201-2.638-5.201-10.4 0-7.96 2.161-10.44 5.121-10.44 1.6 0 2.838 0.6809 4.158 1.881l2.441-2.92c-1.92-1.8-3.961-2.84-6.881-2.84zm92.72 1.76-4.92 0.5996v4.68h-2.48v3.561h2.48v12.32c0 3.48 1.839 5.879 5.639 5.879 1.64 0 3.282-0.5186 4.602-1.559l-1.721-3.041c-0.72 0.4-1.199 0.6406-1.959 0.6406-1.12 0-1.641-0.7199-1.641-1.92v-12.32h3.52l0.4805-3.561h-4zm-75.48 4.721c-5.24 0-8.439 3.879-8.439 11.12 0 7.28 3.199 11.2 8.439 11.2s8.439-4.159 8.439-11.2c0-7.52-3.199-11.12-8.439-11.12zm41.4 0c-5.28 0-8.121 4.438-8.121 11.32 0 6.96 3.042 11 8.602 11 2.84 0 5.039-1.079 6.719-2.719l-2.039-2.801c-1.48 1.2-2.72 1.76-4.4 1.76-2.2 0-3.68-1.239-3.92-5.879h10.92c0.04-0.56 0.1191-1.361 0.1191-2.041 0-7.12-2.999-10.64-7.879-10.64zm19.72 0c-5.16 0-8.521 4.158-8.521 11.32 0 7.4 3.28 11 8.6 11 2.28 0 4.161-0.9594 5.721-2.439l-2.199-2.84c-1.16 0.84-2.041 1.32-3.281 1.32-2.16 0-3.639-1.561-3.639-7.121 0-5.6 1.359-7.439 3.639-7.439 1.24 0 2.241 0.4804 3.361 1.4l2.119-2.801c-1.68-1.64-3.479-2.398-5.799-2.398zm40.32 0c-5.24 0-8.439 3.879-8.439 11.12 0 7.28 3.199 11.2 8.439 11.2s8.441-4.159 8.441-11.2c0-7.52-3.201-11.12-8.441-11.12zm22.76 0c-2.4 0-3.878 1.238-5.238 3.318l-0.3613-2.76h-4.279v21.16h4.92v-14.8c1-1.92 2.12-3.16 3.32-3.16 1.04 0 1.639 0.7598 1.639 2.84v15.12h4.92v-15.68c0-3.68-1.88-6.039-4.92-6.039zm-40.56 0.5586v21.16h4.92v-21.16zm-42.2 2.881c2.16 0 3.041 1.76 3.041 5.76v0.2793h-6.24c0.2-4.68 1.359-6.039 3.199-6.039zm-41.44 0.2793c2.2 0 3.32 1.88 3.32 7.4s-1.12 7.439-3.32 7.439-3.32-1.879-3.32-7.439c0-5.48 1.12-7.4 3.32-7.4zm101.4 0c2.2 0 3.32 1.88 3.32 7.4s-1.12 7.439-3.32 7.439-3.318-1.879-3.318-7.439c0-5.48 1.118-7.4 3.318-7.4z"
          fill="#fff"/>

    <g transform="translate(43.000000,210.000000) scale(0.140000,-0.140000)"
       fill="white" stroke="none">
<path d="M353 896 c-232 -57 -385 -285 -344 -515 35 -194 182 -339 378 -373
135 -23 281 23 383 121 42 41 46 47 17 27 -20 -15 -63 -39 -95 -54 -50 -24
-70 -27 -157 -27 -92 0 -106 3 -167 32 -83 39 -154 108 -194 188 -26 54 -29
70 -29 160 0 88 3 107 27 157 37 80 107 152 186 190 54 27 79 33 152 36 105 5
174 -12 251 -63 l54 -35 -50 47 c-109 101 -268 144 -412 109z"/>
        <path d="M2476 754 c-17 -16 -20 -44 -10 -81 8 -28 24 -29 58 -2 30 24 34 59
8 82 -23 21 -36 21 -56 1z"/>
        <path d="M1153 714 c-63 -31 -67 -48 -64 -251 2 -151 0 -184 -12 -188 -10 -4
-3 -17 26 -45 l39 -40 42 36 c22 20 45 40 50 45 5 4 -1 5 -14 2 -13 -4 -25 0
-31 8 -12 19 -11 381 0 413 6 13 18 26 28 29 13 3 11 5 -7 6 -14 0 -39 -7 -57
-15z"/>
        <path d="M950 631 c-13 -31 -42 -75 -64 -98 -34 -38 -36 -43 -17 -43 20 0 21
-5 21 -105 0 -86 -3 -107 -15 -112 -12 -4 -6 -14 26 -44 l42 -39 46 42 c67 60
68 62 43 48 -45 -23 -52 -10 -52 105 l0 105 35 0 c28 0 35 4 35 20 0 16 -7 20
-35 20 l-34 0 -3 79 -3 79 -25 -57z"/>
        <path d="M1522 667 c-34 -36 -39 -83 -13 -117 18 -26 21 -43 21 -139 0 -90 -3
-112 -16 -119 -13 -7 -11 -12 13 -27 15 -10 40 -32 56 -48 l27 -29 39 35 c21
19 49 38 62 42 55 17 59 28 59 171 0 124 -2 135 -23 159 l-23 27 -49 -41 -49
-41 -11 33 c-5 18 -24 40 -42 52 -39 24 -38 48 2 56 l30 7 -31 1 c-20 1 -38
-7 -52 -22z m152 -133 c3 -9 6 -75 6 -147 l0 -131 -30 34 c-28 34 -29 39 -30
137 0 87 3 104 18 112 24 14 29 13 36 -5z"/>
        <path d="M816 622 c-3 -5 1 -18 8 -28 30 -40 -36 -59 -105 -30 -32 13 -35 13
-67 -15 -18 -16 -39 -29 -47 -29 -12 0 -15 -15 -15 -70 l0 -70 35 -17 c41 -20
41 -23 -16 -98 -23 -31 -40 -58 -37 -60 3 -3 20 2 38 12 31 15 37 15 79 0 43
-15 45 -15 80 9 20 13 44 24 53 24 16 0 18 10 18 78 l0 78 -40 20 -40 19 50
69 c51 70 61 108 28 114 -9 2 -19 -1 -22 -6z m-57 -125 c24 6 24 5 -8 -40 -38
-56 -45 -61 -71 -47 -16 8 -20 21 -20 59 l0 49 38 -14 c20 -7 48 -10 61 -7z
m-11 -123 c18 -12 22 -25 22 -66 0 -44 -2 -49 -17 -42 -10 4 -39 9 -65 12
l-48 4 38 54 c20 29 39 54 42 54 3 0 16 -7 28 -16z"/>
        <path d="M1343 584 c-35 -19 -68 -45 -75 -57 -18 -31 -14 -203 5 -249 15 -35
78 -93 95 -86 5 1 35 26 65 55 48 43 52 49 26 40 -37 -15 -74 4 -101 49 l-18
31 74 58 74 59 -34 68 c-19 37 -38 68 -42 68 -4 0 -35 -16 -69 -36z m40 -95
l25 -57 -29 -21 c-15 -12 -31 -21 -34 -21 -3 0 -5 39 -5 87 0 96 5 98 43 12z"/>
        <path d="M2109 574 c-43 -42 -48 -45 -70 -34 -13 7 -37 25 -54 41 l-30 28 -60
-38 c-107 -68 -105 -65 -105 -186 0 -109 12 -157 44 -185 16 -13 22 -9 61 35
l43 50 7 -27 c4 -14 18 -36 31 -49 l25 -23 42 44 c23 24 34 41 24 37 -13 -5
-20 0 -27 19 -11 28 -14 183 -4 209 8 19 61 48 74 40 16 -10 13 -263 -3 -267
-8 -2 1 -17 23 -39 l36 -37 38 35 c27 25 35 38 27 46 -16 16 -15 239 1 255 32
32 38 14 38 -115 0 -134 10 -192 36 -214 13 -11 22 -5 62 36 26 27 43 46 38
42 -5 -4 -15 -2 -23 4 -20 18 -19 235 3 247 13 7 8 16 -27 51 l-42 42 -48 -47
c-46 -45 -47 -46 -54 -23 -7 24 -43 69 -54 69 -4 0 -27 -21 -52 -46z m-194
-51 c22 -26 24 -37 25 -129 0 -88 -3 -103 -20 -119 -19 -17 -20 -17 -30 9 -10
28 -14 266 -5 266 3 0 17 -12 30 -27z"/>
        <path d="M405 571 c-107 -69 -105 -65 -105 -186 0 -109 12 -157 44 -185 16
-13 22 -9 61 35 l43 50 7 -27 c4 -14 18 -36 31 -49 l25 -23 42 44 c23 24 34
41 24 37 -26 -10 -37 29 -37 133 0 77 3 92 20 108 l21 19 -31 13 c-17 7 -41
26 -55 41 -13 16 -25 29 -27 29 -2 0 -30 -18 -63 -39z m20 -48 c22 -26 24 -37
25 -129 0 -88 -3 -103 -20 -119 -19 -17 -20 -17 -30 9 -10 28 -14 266 -5 266
3 0 17 -12 30 -27z"/>
        <path d="M2455 570 c-28 -29 -34 -40 -22 -40 15 0 17 -13 17 -112 1 -130 10
-183 39 -212 l21 -21 48 49 c27 28 39 46 28 42 -30 -10 -36 10 -36 131 0 93 3
114 16 121 14 8 11 15 -22 45 -22 20 -41 37 -44 37 -3 0 -24 -18 -45 -40z"/>
        <path d="M2725 570 c-107 -68 -105 -64 -105 -185 0 -110 12 -157 45 -185 16
-13 21 -10 60 34 l42 48 12 -30 c7 -17 22 -38 32 -48 19 -17 21 -16 61 23 29
30 36 41 23 40 -26 -3 -38 50 -33 151 2 68 6 85 21 94 16 9 13 13 -28 39 -25
16 -48 36 -51 44 -8 20 -10 19 -79 -25z m20 -47 c22 -26 24 -37 25 -129 0 -87
-3 -103 -19 -118 -15 -14 -21 -15 -27 -4 -10 16 -19 278 -10 278 4 0 18 -12
31 -27z"/>
</g>

</svg>
